<svg width="1102" height="1103" viewBox="0 0 1102 1103" fill="none" xmlns="http://www.w3.org/2000/svg">
<path d="M1001.81 832.241L967.329 839.278C949.381 842.933 930.705 839.822 914.902 830.54L892.07 817.109C881.602 810.949 868.701 810.57 857.879 816.096L819.212 835.828L817.763 822.044L794.87 604.645L991.311 820.699L1001.81 832.241H1001.81Z" fill="#F4BF4A"/>
<g opacity="0.2">
<path d="M991.311 820.699L964.64 826.128C946.696 829.801 928.02 826.686 912.231 817.401L889.381 803.973C878.913 797.813 866.012 797.434 855.187 802.942L817.76 822.04L794.866 604.641L991.307 820.695L991.311 820.699Z" fill="#192341"/>
</g>
<path d="M952.47 847.604C938.142 847.604 923.99 843.798 911.442 836.423L888.602 822.995C880.095 817.992 869.771 817.686 860.98 822.17L822.309 841.898C820.304 842.922 817.925 842.889 815.95 841.819C813.971 840.748 812.652 838.769 812.414 836.531L788.082 605.355C787.772 602.421 789.387 599.616 792.08 598.409C794.776 597.201 797.937 597.861 799.927 600.045L1006.86 827.649C1008.51 829.466 1009.06 832.029 1008.3 834.364C1007.54 836.7 1005.58 838.445 1003.17 838.935L968.684 845.968C963.306 847.067 957.87 847.608 952.467 847.608L952.47 847.604ZM874.05 805.347C881.472 805.347 888.873 807.311 895.523 811.219L918.363 824.646C932.731 833.092 949.633 835.911 965.959 832.584L988.679 827.952L803.849 624.662L824.958 825.216L854.772 810.004C860.868 806.893 867.464 805.347 874.05 805.347Z" fill="#192341"/>
<path d="M526.721 834.069L359.453 838.899L341.869 839.411C399.057 735.17 455.326 645.821 507.854 610.225L509.526 630.011L526.717 834.069H526.721Z" fill="#31416D"/>
<g opacity="0.3">
<path d="M526.721 834.069L359.452 838.899C411.025 746.064 461.746 666.887 509.53 630.011L526.721 834.069Z" fill="#192341"/>
</g>
<path d="M341.869 846.249C339.497 846.249 337.287 845.016 336.044 842.983C334.768 840.892 334.703 838.283 335.881 836.134C386.671 743.555 446.365 643.648 504.026 604.566C506.033 603.207 508.611 603.008 510.799 604.054C512.987 605.099 514.458 607.226 514.659 609.641L533.534 833.488C533.692 835.359 533.072 837.212 531.821 838.611C530.57 840.009 528.801 840.835 526.926 840.889L342.063 846.245C341.999 846.245 341.93 846.245 341.865 846.245L341.869 846.249ZM502.083 622.982C451.408 663.524 397.1 753.652 353.617 832.248L519.32 827.447L502.083 622.978V622.982Z" fill="#192341"/>
<path d="M633.506 1030.83C630.521 1030.39 621.12 1028.84 608.388 1024.87C580.142 1016.04 535.531 995.248 508.427 947.8C479.096 896.411 488.735 846.036 491.809 832.475C553.655 851.014 615.497 869.549 677.361 888.07C696.512 893.816 715.678 899.547 734.83 905.293C816.04 1081.65 662.895 1161.09 633.51 1030.83H633.506Z" fill="#31416D"/>
<path d="M633.506 1030.83C630.521 1030.39 621.12 1028.84 608.388 1024.88C611.932 1022.02 615.367 1019.04 618.748 1016.1C626.614 1009.23 634.461 1002.29 641.407 994.564C667.43 965.6 678.676 926.738 677.357 888.07C696.509 893.816 715.675 899.548 734.826 905.294C816.036 1081.65 662.891 1161.09 633.506 1030.83Z" fill="#A578E1"/>
<path d="M692.807 1102.24C688.791 1102.24 684.772 1101.78 680.781 1100.84C655.996 1094.99 636.887 1071.76 627.922 1036.82C623.049 1035.91 615.526 1034.25 606.359 1031.4C574.119 1021.32 529.936 999.224 502.497 951.192C473.685 900.712 480.768 850.3 485.148 830.968C485.566 829.123 486.73 827.533 488.367 826.581C490 825.626 491.957 825.392 493.77 825.94C555.612 844.479 617.454 863.014 679.318 881.535L736.787 898.758C738.665 899.32 740.208 900.661 741.026 902.442C758.188 939.707 766.259 974.932 765.016 1007.14C763.931 1035.2 755.734 1059.36 741.304 1077C727.97 1093.31 710.477 1102.24 692.807 1102.24ZM497.04 841.173C493.377 862.372 490.951 903.404 514.357 944.418C539.597 988.597 580.531 1009.01 610.425 1018.36C622.425 1022.1 631.257 1023.61 634.497 1024.08C637.291 1024.49 639.544 1026.58 640.167 1029.33C647.42 1061.48 663.367 1082.7 683.921 1087.55C700.247 1091.41 717.747 1084.23 730.731 1068.35C752.626 1041.58 763.714 986.305 729.895 910.949L675.396 894.616C615.933 876.813 556.488 858.995 497.04 841.177V841.173Z" fill="#192341"/>
<path d="M634.032 1024.03C645.369 1026.68 656.068 1027.09 666.496 1021.22C667.545 1020.64 668.868 1021.03 669.434 1022.09C669.906 1022.97 669.701 1024.04 668.998 1024.69C664.293 1029.09 658.587 1032.68 652.33 1034.67C645.895 1036.76 639.219 1037.34 632.936 1037.65C622.62 1037.59 623.827 1022.44 634.036 1024.03H634.032Z" fill="#192341"/>
<path d="M604.524 1028.74C602.087 1028.74 599.928 1026.99 599.488 1024.51C598.995 1021.73 600.851 1019.07 603.634 1018.58C616.452 1016.3 628.881 1006.95 638.628 992.246C657.318 964.061 663.464 922.553 654.673 883.921C654.045 881.164 655.772 878.42 658.53 877.79C661.294 877.155 664.034 878.889 664.661 881.647C674.055 922.917 667.354 967.467 647.168 997.905C635.694 1015.21 621.257 1025.84 605.429 1028.66C605.126 1028.71 604.823 1028.74 604.528 1028.74H604.524Z" fill="#192341"/>
<g opacity="0.3">
<path d="M498.611 806.11C493.951 836.602 491.849 867.765 496.831 898.21C501.812 928.655 514.27 958.502 535.88 981.125C559.112 1005.45 591.62 1020.09 625.049 1027.09C627.284 1027.56 629.62 1028.04 631.412 1029.41C633.636 1031.12 634.616 1033.89 635.553 1036.49C640.438 1049.99 647.243 1063.16 657.762 1073.21C668.284 1083.25 682.951 1089.87 697.659 1088.54C713.771 1087.09 727.887 1076.27 736.07 1062.74C744.253 1049.21 747.191 1033.28 747.98 1017.62C729.005 1012.83 705.715 1005.22 680.587 992.79C659.64 982.43 642.381 971.173 628.701 960.95C630.435 956.09 632.518 948.989 633.499 940.205C634.414 931.997 635.997 923.966 632.237 916.356C628.769 909.338 622.847 903.776 616.831 898.621C589.313 875.035 557.177 856.533 522.64 844.388C512.54 840.838 501.03 836.772 497.018 827.115C496.207 825.161 495.757 823.456 495.547 822.274" fill="#192341"/>
</g>
<path d="M815.384 891.992L813.318 897.915C820.78 905.016 822.691 917.701 819.89 930.505C817.532 941.275 811.729 951.008 803.824 958.69C787.469 974.565 768.88 988.497 748.272 1000.65C726.388 1013.57 699.89 1016.65 675.922 1008.2C668.461 1005.57 661.583 1002.15 655.693 998.125C641.353 988.309 638.228 972.175 636.642 965.877C633.841 954.764 634.371 944.898 635.514 937.847C635.121 937.865 634.71 937.898 634.285 937.916C634.047 937.934 633.805 937.934 633.567 937.948C613.201 939.023 569.209 938.154 532.878 909.183C483.627 869.885 481.118 804.928 479.272 756.784C478.061 725.405 481.612 696.607 487.552 671.05C487.57 670.982 487.585 670.895 487.603 670.827C494.498 641.344 504.574 616.18 514.27 596.325C593.945 571.828 673.615 547.33 753.29 522.851C770.001 532.461 784.82 543.423 797.761 555.527C839.16 594.159 861.437 644.318 865.774 698.655C870.197 753.814 856.128 813.309 824.817 869.524C823.487 871.932 822.103 874.34 820.704 876.744L815.377 891.989L815.384 891.992Z" fill="#31416D"/>
<path d="M824.824 869.528C826.021 859.352 827.557 849.075 826.771 839.004C825.167 818.587 814.137 800.217 802.443 783.383C795.922 773.979 788.853 764.57 779.139 758.511C762.049 747.859 739.448 749.701 721.165 758.154C702.864 766.603 687.944 780.791 673.381 794.706C676.643 793.664 678.759 798.155 678.928 801.569C680.003 823.215 666.773 842.54 656.853 861.832C644.698 885.493 637.017 911.458 634.284 937.92C634.046 937.938 633.805 937.938 633.567 937.952C613.201 939.026 569.209 938.158 532.877 909.187C483.627 869.888 481.118 804.932 479.272 756.788C478.061 725.326 481.63 696.438 487.603 670.834C508.225 682.221 530.059 690.79 553.208 689.561C564.321 688.98 575.178 686.111 586.155 684.15C620.435 678.004 655.945 680.718 689.966 673.26C709.446 668.974 728.222 661.412 747.991 658.852C790.277 653.373 832.459 671.62 865.766 698.662C870.189 753.821 856.12 813.317 824.81 869.532L824.824 869.528Z" fill="white"/>
<g opacity="0.3">
<path d="M718.111 716.379C722.704 711.499 728.525 708.117 734.877 706.221L718.111 716.379Z" fill="#192341"/>
</g>
<g opacity="0.3">
<path d="M820.712 876.748C822.11 874.34 823.494 871.932 824.824 869.528C856.135 813.313 870.2 753.817 865.781 698.658C861.445 644.321 839.168 594.162 797.768 555.531C785.595 549.623 772.877 544.674 759.526 542.677C737.98 539.468 716.129 544.144 694.843 548.786C684.635 551.021 673.997 553.447 665.923 560.105C651.908 571.68 649.824 592.133 649.961 610.297C650.116 628.666 652.726 649.527 667.631 660.283C674.376 665.131 682.706 667.128 690.164 670.816C697.608 674.485 704.76 680.974 705.016 689.286C705.272 698.453 697.622 709.465 704.522 715.543C716.334 711.412 728.15 707.281 739.963 703.15L734.877 706.221C746.776 702.634 760.503 704.257 771.154 710.914C795.241 725.989 795.327 756.651 795.172 760.457C794.949 765.749 793.994 770.136 793.107 773.211C799.559 779.133 809.548 789.958 816.155 806.294C827.305 833.812 821.429 858.652 819.007 867.188C813.098 860.307 802.566 849.828 786.572 841.581C771.821 833.967 758.336 831.304 749.613 830.28C746.149 830.568 740.259 831.116 732.966 832.071C716.071 834.288 710.257 837.507 705.041 837.612C706.515 834.151 707.604 830.561 708.051 826.762C710.221 808.407 694.191 790.001 675.709 789.63C679.195 794.644 680.76 800.548 680.929 806.637C679.693 802.661 678.482 798.209 677.31 793.202C665.407 800.613 643.848 811.806 614.938 814.819C595.383 816.86 578.235 814.553 569.476 812.264C528.054 801.432 495.108 744.095 487.559 671.047C482.837 691.172 477.859 720.889 479.279 756.78C481.139 803.814 485.339 871.262 532.885 909.179C569.213 938.15 613.208 939.019 633.574 937.945C633.765 937.93 633.956 937.927 634.147 937.916C634.144 941.906 634.292 945.893 634.609 949.869C634.652 954.732 635.2 960.131 636.646 965.874C636.876 966.793 637.15 967.939 637.475 969.226C638.689 974.803 640.232 980.307 642.125 985.699C642.438 985.137 642.781 984.593 643.098 984.038C645.874 989.052 649.835 994.116 655.693 998.125C661.583 1002.15 668.46 1005.57 675.922 1008.2C699.89 1016.65 726.384 1013.57 748.272 1000.65C768.876 988.497 787.469 974.568 803.824 958.69C811.729 951.008 817.532 941.275 819.89 930.505C822.691 917.701 820.776 905.016 813.318 897.915L815.384 891.992L820.712 876.748Z" fill="#192341"/>
</g>
<path d="M819.893 930.508C817.536 941.279 811.732 951.012 803.827 958.693C787.473 974.568 768.883 988.5 748.275 1000.66C726.391 1013.58 699.893 1016.65 675.926 1008.2C668.464 1005.57 661.586 1002.15 655.696 998.129C651.035 994.935 647.553 991.078 644.94 987.102C639.479 978.858 637.72 970.135 636.642 965.881C633.841 954.768 634.371 944.902 635.514 937.851C634.897 937.883 634.252 937.919 633.567 937.952C635.153 926.752 639.014 915.794 641.847 904.749C644.612 894.047 646.472 882.948 651.475 873.082C664.535 847.287 695.47 836.055 724.182 832.605C740.504 830.64 757.284 830.439 773.159 834.689C789.052 838.938 804.058 847.986 813.225 861.626C817.338 867.754 820.257 875.421 818.105 882.487C817.37 884.858 816.108 887.061 815.615 889.501C815.445 890.338 815.377 891.174 815.377 891.992L815.258 892.335L813.311 897.918C820.773 905.02 822.683 917.704 819.882 930.508H819.893Z" fill="#A578E1"/>
<path d="M703.797 1019.78C693.603 1019.78 683.424 1018.08 673.655 1014.64C665.562 1011.79 658.22 1008.13 651.839 1003.76C636.242 993.086 632.096 976.064 630.327 968.797L630.02 967.546C628.167 960.186 627.45 952.63 627.875 944.996C599.488 945.648 561.07 940.4 528.624 914.522C476.904 873.255 474.33 806.089 472.452 757.044C470.315 701.312 482.322 646.232 508.135 593.333C508.964 591.635 510.46 590.356 512.266 589.804C591.94 565.307 671.615 540.806 751.285 516.326C753.095 515.771 755.052 515.991 756.696 516.932C812.187 548.841 849.769 596.801 865.381 655.629C883.992 725.759 870.341 805.282 826.937 879.625L821.076 896.404C827.564 905.052 829.622 917.964 826.562 931.961C823.992 943.719 817.774 954.652 808.585 963.585C792.177 979.514 773.054 993.962 751.743 1006.53C736.888 1015.3 720.328 1019.78 703.794 1019.78L703.797 1019.78ZM635.521 931.017C637.453 931.017 639.299 931.838 640.6 933.28C641.981 934.816 642.593 936.896 642.262 938.936C640.87 947.519 641.209 956.022 643.271 964.205L643.606 965.56C645.239 972.272 648.281 984.766 659.561 992.487C664.957 996.178 671.229 999.297 678.2 1001.75C700.002 1009.44 724.275 1006.89 744.808 994.765C765.189 982.747 783.446 968.959 799.073 953.784C806.333 946.729 811.228 938.172 813.225 929.038C815.658 917.91 813.892 907.878 808.614 902.853C806.671 901.004 805.99 898.192 806.873 895.658L814.266 874.484C814.414 874.066 814.598 873.666 814.822 873.284C856.632 801.944 869.905 725.888 852.184 659.126C837.765 604.796 803.305 560.293 752.442 530.251C674.671 554.147 596.904 578.06 519.129 601.974C495.198 652.01 484.088 703.986 486.103 756.514C487.88 802.92 490.313 866.471 537.142 903.837C568.593 928.919 606.741 932.516 633.21 931.121L635.146 931.02C635.269 931.013 635.395 931.009 635.517 931.009L635.521 931.017Z" fill="#192341"/>
<path d="M627.796 949.693C631.109 916.133 639.176 882.353 655.877 852.791C661.583 843.026 668.965 833.73 678.619 827.414C680.118 826.434 681.888 828.463 680.623 829.797C665.966 845.715 658.292 866.511 652.232 886.993C646.429 907.828 643.206 929.348 641.404 950.886C640.398 959.869 627.245 958.787 627.8 949.693H627.796Z" fill="#192341"/>
<path d="M808.088 902.309C793.9 884.008 771.533 873.306 748.376 871.95C724.913 870.418 700.6 877.368 681.012 891.329C679.952 892.09 678.474 891.845 677.717 890.781C676.989 889.761 677.198 888.359 678.157 887.58C697.745 871.77 722.942 862.683 748.69 862.769C761.548 862.83 774.564 865.296 786.633 870.49C798.719 875.649 809.732 883.611 818.556 893.539C824.504 900.636 814.057 909.432 808.084 902.309H808.088Z" fill="#192341"/>
<path d="M820.711 881.867C818.545 881.867 816.534 880.482 815.834 878.309C808.456 855.329 786.716 839.926 756.188 836.04C721.446 831.61 675.836 843.65 655.894 875.194C654.384 877.588 651.219 878.302 648.829 876.784C646.439 875.274 645.726 872.109 647.236 869.719C669.466 834.559 719.521 821.056 757.478 825.879C792.112 830.284 816.937 848.253 825.585 875.173C826.45 877.865 824.969 880.749 822.276 881.614C821.757 881.78 821.227 881.863 820.708 881.863L820.711 881.867Z" fill="#192341"/>
<path d="M812.352 879.985C820.737 851.659 818.336 819.83 802.973 794.309C779.114 755.086 739.011 748.403 701.526 773.759C693.07 779.461 685.424 786.447 678.662 794.262C677.321 795.891 674.693 793.934 675.966 792.157C688.524 774.71 705.939 760.475 726.601 753.511C773.916 737.348 815.164 773.946 826.822 818.212C832.661 839.663 831.919 862.693 825.441 883.903C822.633 892.565 809.952 888.813 812.356 879.989L812.352 879.985Z" fill="#192341"/>
<path d="M646.176 994.016C646.014 994.016 645.848 994.009 645.686 993.994C642.871 993.724 640.805 991.226 641.072 988.41C643.458 963.372 664.726 935.807 695.25 918.188C738.381 893.29 786.55 895.684 802.627 923.526C809.393 935.238 809.786 949.613 803.766 965.106C802.742 967.741 799.776 969.05 797.137 968.026C794.502 967.002 793.193 964.036 794.217 961.397C797.602 952.684 800.269 939.927 793.752 928.652C780.498 905.697 738.604 904.984 700.365 927.059C672.62 943.074 653.346 967.536 651.262 989.384C651.01 992.033 648.779 994.019 646.169 994.019L646.176 994.016Z" fill="#192341"/>
<g opacity="0.3">
<path d="M819.893 930.508C817.536 941.279 811.732 951.012 803.827 958.693C787.473 974.569 768.883 988.501 748.275 1000.66C726.391 1013.58 699.893 1016.65 675.926 1008.2C668.464 1005.57 661.586 1002.16 655.696 998.129C651.035 994.935 647.553 991.078 644.94 987.102C646.27 983.62 648.148 980.289 650.08 977.117C662.798 956.015 678.658 936.503 698.664 922.351C718.656 908.217 743.067 899.714 767.377 901.523C771.713 901.848 776.406 902.395 780.044 900.002C785.609 896.35 785.371 887.404 781.222 882.144C777.091 876.885 770.466 874.463 764.132 872.466C782.484 875.162 801.791 879.535 815.261 892.338L813.315 897.922C820.777 905.023 822.687 917.708 819.886 930.512L819.893 930.508Z" fill="#192341"/>
</g>
<g opacity="0.3">
<path d="M705.358 834.299C703.393 850.848 694.782 865.721 688.001 880.944C681.217 896.166 676.128 913.541 681.517 929.311C681.866 930.335 682.263 931.406 682.054 932.466C681.866 933.399 681.235 934.171 680.623 934.899C667.127 950.911 651.688 966.35 645.289 986.291C635.654 972.005 631.422 954.166 633.621 937.076C634.475 930.44 636.253 923.966 638.062 917.524C643.112 899.551 648.581 881.376 658.735 865.714C668.889 850.048 684.498 836.974 702.936 834.061C704.291 836.307 704.814 839.043 704.377 841.631" fill="#192341"/>
</g>
<path d="M640.434 772.525C618.669 783.094 595.484 791.937 572.609 798.321C519.14 836.577 465.64 819.422 465.928 774.385C465.978 767.097 467.431 759.055 470.52 750.418C474.19 740.159 479.792 730.7 486.756 722.319C504.92 700.381 529.197 678.122 557.483 655.654C574.966 641.776 593.966 627.794 613.99 613.779C629.184 603.159 644.958 592.489 661.089 581.805C696.7 566.867 741.495 586.996 750.648 654.036C756.213 695.486 704.554 741.424 640.434 772.529V772.525Z" fill="#31416D"/>
<path d="M640.47 770.889C640.47 771.437 640.452 771.981 640.438 772.529C618.673 783.098 595.487 791.94 572.612 798.324C510.489 842.777 448.315 812.426 470.524 750.422C474.193 740.163 479.795 730.704 486.759 722.323C504.923 700.385 529.201 678.126 557.487 655.658C578.16 661.822 597.16 673.941 611.467 690.468C630.417 712.32 640.982 741.633 640.47 770.893V770.889Z" fill="#A578E1"/>
<g opacity="0.6">
<path d="M474.485 783.592C474.536 776.303 475.988 768.261 479.078 759.624C482.747 749.365 488.349 739.906 495.313 731.526C513.477 709.587 537.755 687.329 566.041 664.861C583.523 650.982 602.524 637 622.548 622.985C637.741 612.365 653.516 601.696 669.647 591.011C689.71 582.594 712.69 585.312 730.569 601.281C711.955 577.342 684.534 571.971 661.093 581.805C644.962 592.493 629.188 603.163 613.994 613.778C593.97 627.794 574.969 641.776 557.487 655.654C529.201 678.119 504.923 700.381 486.759 722.319C479.795 730.7 474.193 740.159 470.524 750.418C467.435 759.055 465.982 767.097 465.931 774.385C465.834 789.42 471.757 801.323 481.644 809.12C477.009 802.177 474.42 793.573 474.485 783.592Z" fill="white"/>
</g>
<path d="M752.994 653.715C759.976 695.872 716.929 731.551 686.199 753.183C652.07 776.39 614.073 793.57 574.447 804.903C574.418 804.914 576.584 803.879 576.577 803.879C554.426 819.765 524.915 831.177 497.123 824.105C463.985 815.49 452.699 783.642 462.521 752.974C467.561 734.936 478.995 719.764 491.629 706.401C503.687 693.269 516.624 681.136 529.976 669.579C569.955 635.165 613.558 605.225 657.322 576.106C664.892 571.355 672.314 582.256 664.86 587.493C621.43 616.396 578.408 645.918 538.912 679.907C519.757 696.856 500.652 714.23 485.829 735.026C471.548 756.11 464.133 791.746 490.173 806.676C500.244 812.429 512.493 813.543 523.909 811.889C540.757 809.892 556.218 801.067 570.676 791.771C626.502 775.344 685.28 748.926 725.454 705.871C738.204 691.561 749.224 674.085 748.304 654.339C748.023 651.473 752.417 650.734 752.994 653.708V653.715Z" fill="#192341"/>
<path d="M640.492 777.622C637.662 777.622 635.37 775.33 635.37 772.5C635.37 708.048 595.505 666.216 557.999 659.576C555.212 659.082 553.356 656.426 553.85 653.643C554.343 650.86 557.007 648.993 559.783 649.494C601.392 656.855 645.61 702.468 645.61 772.504C645.61 775.333 643.318 777.626 640.488 777.626L640.492 777.622Z" fill="#192341"/>
<g opacity="0.3">
<path d="M640.434 772.526C618.669 783.095 595.484 791.937 572.608 798.321C519.14 836.577 465.639 819.423 465.928 774.386C467.276 777.561 468.948 780.618 470.981 783.52C480.217 796.681 496.366 804.467 512.432 804.261C528.498 804.038 544.149 796.082 554.376 783.689C557.721 779.659 560.522 775.172 564.296 771.534C571.123 764.945 580.412 761.751 589.154 758.082C620.345 744.935 647.283 723.664 673.814 702.634C684.721 693.998 696.008 684.881 701.829 672.247C710.297 653.913 704.287 630.065 688.157 617.942C677.487 609.918 663.641 607.067 650.307 607.46C637.997 607.802 625.947 610.704 613.997 613.775C629.191 603.156 644.965 592.486 661.096 581.802C696.707 566.864 741.502 586.992 750.655 654.032C756.22 695.483 704.561 741.421 640.441 772.526H640.434Z" fill="#192341"/>
</g>
<path d="M1091.21 857.431C1084.69 886.989 1070.92 910.78 1054.72 919.687C1048 923.386 1039.63 921.677 1034.72 915.787C923.524 782.576 823.902 563.613 668.922 575.332L729.812 521.633C751.866 521.687 774.2 524.884 796.43 530.738C912.004 561.162 1025.16 662.882 1085.23 763.136C1097.06 794.442 1097.56 828.68 1091.21 857.434L1091.21 857.431Z" fill="#F4BF4A"/>
<g opacity="0.6">
<path d="M1085.23 763.129C1025.16 662.879 912.004 561.154 796.43 530.731C774.204 524.877 751.866 521.683 729.812 521.625L725.739 525.219C744.761 526.016 763.952 529.069 783.064 534.101C898.638 564.525 1011.79 666.245 1071.86 766.499C1083.7 797.806 1084.19 832.043 1077.84 860.798C1071.71 888.644 1059.13 911.357 1044.15 921.345C1047.67 922.016 1051.4 921.515 1054.73 919.684C1070.92 910.78 1084.69 886.986 1091.21 857.427C1097.57 828.669 1097.06 794.432 1085.23 763.129H1085.23Z" fill="white"/>
</g>
<path d="M1047.16 928.457C1040.53 928.457 1033.98 925.566 1029.47 920.167C1001.68 886.874 974.098 847.529 947.42 809.478C866.127 693.526 782.066 573.591 669.437 582.137C666.507 582.346 663.771 580.685 662.632 577.981C661.493 575.278 662.206 572.145 664.409 570.206L725.296 516.51C726.543 515.411 728.151 514.805 729.812 514.805H729.827C794.859 514.95 866.123 541.689 935.925 592.133C997.359 636.528 1053.91 697.577 1091.09 759.625C1091.3 759.974 1091.47 760.342 1091.62 760.721C1116.29 826.027 1093.76 906.007 1058.01 925.671C1054.6 927.549 1050.87 928.454 1047.16 928.454V928.457ZM687.364 568.169C797.973 572.527 879.562 688.901 958.602 801.637C986.336 841.195 1012.53 878.561 1039.96 911.414C1042.81 914.832 1047.63 915.794 1051.43 913.707C1078.5 898.812 1102.44 828.842 1079.05 766.117C1010.32 651.762 865.997 530.316 732.368 528.482L687.364 568.169Z" fill="#192341"/>
<path d="M697.316 544.368C767.031 529.61 837.275 563.757 885.679 612.424C902.044 628.515 916.675 646.279 929.396 665.29C930.186 666.473 929.869 668.069 928.69 668.863C927.533 669.638 925.972 669.342 925.165 668.221C886.259 614.536 831.471 567.099 765.077 553.934C743.362 549.789 720.937 549.879 699.371 554.403C692.756 555.632 690.615 545.925 697.312 544.368H697.316Z" fill="#192341"/>
<g opacity="0.2">
<path d="M1091.21 857.431C1084.69 886.989 1070.92 910.78 1054.72 919.687C1048 923.386 1039.63 921.677 1034.72 915.787C923.524 782.576 823.902 563.613 668.922 575.332L729.812 521.633C751.866 521.687 774.2 524.884 796.43 530.738C797.598 551.548 818.725 567.102 837.477 578.168C826.083 577.844 818.621 591.733 820.946 602.907C823.271 614.082 831.868 622.704 839.95 630.754C903.464 694.12 959.391 765.1 1006.12 841.685C1016.65 858.93 1026.77 876.517 1039.16 892.475C1041.44 895.442 1043.97 898.466 1047.43 899.894C1053.75 902.489 1060.92 898.971 1066.22 894.656C1078 885.089 1085.6 871.73 1091.21 857.431H1091.21Z" fill="#192341"/>
</g>
<path d="M439.451 241.789C439.451 297.1 395.986 341.949 342.366 341.949C304.827 341.949 272.255 319.943 256.103 287.764C249.189 273.987 245.296 258.367 245.296 241.789C245.296 186.479 288.761 141.648 342.366 141.648C343.289 141.648 344.208 141.666 345.131 141.698C397.471 143.201 439.451 187.434 439.451 241.789Z" fill="#31416D"/>
<g opacity="0.6">
<path d="M262.241 310.3C255.753 295.449 252.098 278.611 252.098 260.743C252.098 201.118 292.892 152.793 343.203 152.793C344.068 152.793 344.933 152.811 345.798 152.847C394.923 154.466 434.322 202.149 434.322 260.739C434.322 274.999 431.964 288.604 427.725 301.065C435.201 285.763 439.448 268.23 439.448 249.594C439.448 190.999 397.468 143.32 345.128 141.702C344.205 141.666 343.286 141.648 342.363 141.648C288.758 141.648 245.292 189.972 245.292 249.597C245.292 267.466 249.185 284.303 256.099 299.154C258.049 303.347 260.244 307.373 262.656 311.219C262.519 310.913 262.371 310.61 262.238 310.3H262.241Z" fill="white"/>
</g>
<path d="M342.37 348.777C285.077 348.777 238.465 300.784 238.465 241.797C238.465 182.81 285.077 134.817 342.37 134.817C399.663 134.817 446.275 182.81 446.275 241.797C446.275 300.784 399.663 348.777 342.37 348.777ZM342.37 148.471C292.607 148.471 252.123 190.336 252.123 241.797C252.123 293.257 292.607 335.122 342.37 335.122C392.133 335.122 432.617 293.257 432.617 241.797C432.617 190.336 392.133 148.471 342.37 148.471Z" fill="#192341"/>
<path d="M349.176 284.757C369.173 284.757 385.385 267.005 385.385 245.106C385.385 223.207 369.173 205.454 349.176 205.454C329.178 205.454 312.967 223.207 312.967 245.106C312.967 267.005 329.178 284.757 349.176 284.757Z" fill="white"/>
<path d="M349.176 289.88C326.387 289.88 307.844 269.794 307.844 245.106C307.844 220.417 326.387 200.332 349.176 200.332C371.964 200.332 390.507 220.417 390.507 245.106C390.507 269.794 371.964 289.88 349.176 289.88ZM349.176 210.577C332.032 210.577 318.089 226.066 318.089 245.106C318.089 264.146 332.035 279.635 349.176 279.635C366.316 279.635 380.262 264.146 380.262 245.106C380.262 226.066 366.316 210.577 349.176 210.577Z" fill="#192341"/>
<g opacity="0.3">
<path d="M435.378 268.846C419.052 321.695 364.29 351.718 313.057 335.89C277.19 324.809 252.563 294.173 246.629 258.66C258.28 271.211 274.007 280.107 290.942 279.996C312.137 279.862 330.874 265.941 344.709 249.9C356.014 236.793 365.169 221.841 371.726 205.822C377.234 192.391 380.933 177.864 379.592 163.406C379.019 157.224 377.407 151.045 374.798 145.379C424.366 162.263 451.419 216.914 435.378 268.846Z" fill="#192341"/>
</g>
<path d="M655.682 600.29C462.893 658.351 358.382 609.493 351.587 470.478C350.974 457.811 349.608 445.195 347.763 432.665C314.899 209.676 423.901 107.692 565.168 98.983C573.43 98.4531 581.797 98.2657 590.246 98.3846C640.899 -92.8151 890.142 52.8719 769.496 195.131C774.514 200.815 779.416 206.536 784.196 212.253C811.051 244.364 834.164 277.04 850.93 310.636C862.23 333.273 869.249 357.908 870.168 383.191C873.906 485.398 786.143 555.477 655.682 600.29Z" fill="white"/>
<path d="M769.496 195.131C774.514 200.815 779.416 206.536 784.196 212.253C776.497 213.19 770.062 206.107 764.94 199.911C731.326 159.196 685.713 129.064 635.658 114.537C620.089 110.013 604.092 106.957 587.961 105.558C580.023 104.877 572.05 104.585 564.076 104.704C564.401 102.793 564.757 100.879 565.168 98.983C573.43 98.4531 581.797 98.2657 590.246 98.3846C640.899 -92.815 890.142 52.8719 769.496 195.131Z" fill="#31416D"/>
<g opacity="0.6">
<path d="M783.558 212.293C783.771 212.278 783.98 212.282 784.196 212.257C782.3 209.989 780.372 207.722 778.44 205.458C778.303 205.62 778.173 205.783 778.036 205.949C779.9 208.061 781.731 210.177 783.562 212.296L783.558 212.293Z" fill="white"/>
<path d="M599.435 106.841C630.954 -6.7065 733.734 1.59509 783.353 57.2586C737.844 -8.15199 622.865 -24.7443 590.246 98.3881C581.797 98.2691 573.43 98.4566 565.168 98.9865C564.757 100.883 564.401 102.793 564.076 104.707C572.05 104.588 580.02 104.877 587.961 105.561C591.796 105.893 595.621 106.326 599.438 106.845L599.435 106.841Z" fill="white"/>
</g>
<path d="M539.889 312.322C514.079 335.821 514.22 369.294 514.27 371.832C514.951 405.37 537.124 434.752 562.148 442.949C576.047 447.502 590.978 447.415 605.602 447.282C624.948 447.105 644.298 446.932 663.645 446.756C676.117 446.644 689.108 446.406 700.207 440.718C721.889 429.601 728.976 400.338 721.979 376.994C714.983 353.654 697.363 335.173 679.473 318.631C667.823 307.856 660.127 303.722 655.678 301.544C652.012 299.749 637.312 292.872 613.006 292.443C590.981 292.057 562.699 291.556 539.889 312.326V312.322Z" fill="#31416D"/>
<path d="M353.123 468.319C348.011 440.173 357.816 410.647 375.245 387.963C382.818 378.104 392.068 369.143 403.491 364.237C430.422 352.67 464.284 368.433 476.973 394.852C489.661 421.274 483.075 454.38 464.983 477.439C457.933 486.425 449.332 494.125 442.494 503.277C438.33 508.85 434.809 514.971 429.816 519.815C413.494 535.665 384.415 532.489 368.378 516.355C352.341 500.217 348.314 474.851 353.534 452.707" fill="#31416D"/>
<path d="M618.599 418.439C636.243 411.638 643.377 387.527 634.534 364.586C625.691 341.645 604.219 328.561 586.576 335.362C568.932 342.163 561.798 366.273 570.641 389.214C579.484 412.156 600.956 425.24 618.599 418.439Z" fill="#192341"/>
<path d="M556.73 500.725C571.466 581.376 506.214 565.159 502.068 520.699L556.73 500.725Z" fill="#192341"/>
<path d="M515.615 631.207C470.78 631.207 434.214 621.331 406.231 601.57C368.381 574.848 347.701 530.853 344.771 470.803C344.201 459.116 342.968 446.965 341.007 433.656C324.318 320.415 343.304 228.82 395.907 168.78C439.578 118.935 506.596 91.6077 585.066 91.5284C605.999 19.615 651.854 3.70387 677.707 0.675938C723.461 -4.68423 773.216 22.3077 796.016 64.8501C818.077 106.012 811.624 153.161 778.443 194.986C813.82 235.683 839.557 272.559 857.04 307.59C869.35 332.253 876.062 357.601 876.984 382.938C878.841 433.714 858.975 479.23 817.947 518.219C781.244 553.094 727.397 582.883 657.903 606.757C657.82 606.786 657.737 606.815 657.654 606.836C603.695 623.082 556.258 631.207 515.615 631.207ZM585.16 105.187C509.645 105.187 447.839 130.232 406.18 177.781C356.298 234.717 338.434 322.509 354.518 431.667C356.544 445.418 357.82 458.002 358.411 470.139C361.129 525.774 379.866 566.24 414.107 590.417C463.83 625.519 544.402 626.662 653.595 593.798C721.161 570.577 773.292 541.818 808.546 508.32C846.615 472.147 865.049 430.134 863.344 383.439C862.49 360.067 856.261 336.6 844.827 313.692C827.254 278.485 800.936 241.181 764.374 199.647C762.136 197.102 762.1 193.303 764.291 190.719C808.91 138.101 795.782 93.32 783.984 71.3061C763.729 33.511 719.701 9.51463 679.3 14.244C639.573 18.894 610.292 49.4005 596.85 100.144C596.046 103.175 593.321 105.233 590.149 105.223C588.483 105.197 586.815 105.187 585.164 105.187H585.16Z" fill="#192341"/>
<path d="M653.397 114.844C682.742 124.003 704.796 136.973 721.496 151.986C773.793 91.943 671.287 40.2338 653.397 114.844Z" fill="white"/>
<path d="M721.5 157.109C720.238 157.109 719.02 156.644 718.075 155.796C700.658 140.141 678.388 128.008 651.872 119.735C649.298 118.931 647.788 116.275 648.418 113.65C653.995 90.3894 668.37 75.6102 687.857 73.1049C707.229 70.6105 727.152 80.8622 736.333 98.0241C745.752 115.637 741.751 136.529 725.36 155.349C724.459 156.384 723.18 157.015 721.81 157.098C721.705 157.105 721.601 157.109 721.496 157.109H721.5ZM659.636 111.48C683.546 119.486 704.096 130.625 720.865 144.658C731.78 130.243 734.087 115.543 727.303 102.854C720.202 89.5747 704.165 81.338 689.166 83.2629C675.158 85.0653 664.798 95.0214 659.636 111.48Z" fill="#192341"/>
<path d="M476.147 467.576C479.709 453.929 500.872 447.365 515.096 447.538C523.268 447.635 527.262 450.032 529.132 451.146C533.271 453.616 536.446 457.728 536.807 462.292C537.247 467.894 533.559 473.02 529.579 477.237C526.515 480.481 523.174 483.502 519.598 486.256C516.559 488.595 513.232 490.798 509.382 491.591C503.835 492.734 499.358 491.072 491.561 488.105C484.067 485.254 480.318 483.83 477.863 480.092C474.392 474.807 475.862 468.687 476.151 467.576H476.147Z" fill="#192341"/>
<path d="M514.959 457.678C514.299 455.353 506.963 455.396 498.572 457.772C490.18 460.147 483.911 463.961 484.571 466.282C485.231 468.607 492.566 468.564 500.958 466.189C509.35 463.813 515.618 459.999 514.959 457.678Z" fill="white"/>
<path d="M512.27 483.106L518.96 512.214L514.4 508.259C534.402 510.963 562.49 502.625 565.01 479.393C565.269 476.599 569.458 476.779 569.461 479.598C568.769 506.886 537.333 519.773 513.535 518.468C511.231 518.367 509.386 516.672 508.975 514.51L502.285 485.402C500.944 478.784 510.579 476.56 512.266 483.109L512.27 483.106Z" fill="#192341"/>
<path d="M517.734 516.831C506.372 528.175 474.11 532.342 471.461 511.471C471.302 509.365 474.417 508.94 474.842 510.995C475.585 514.617 477.985 517.242 481.158 518.485C490.782 521.852 503.799 517.458 510.201 509.892C514.948 504.214 523.012 511.615 517.731 516.834L517.734 516.831Z" fill="#192341"/>
<path d="M535.797 561.06C532.106 561.06 528.253 560.253 524.399 558.616C510.345 552.651 500.244 537.893 498.669 521.02C498.532 519.57 499.336 518.193 500.663 517.591C505.244 515.515 509.844 512.123 510.125 510.609C510.323 509.539 511.026 508.627 512.007 508.158C512.987 507.686 514.137 507.715 515.096 508.23C525.506 513.817 538.447 510.483 554.65 498.022C555.594 497.297 556.849 497.117 557.955 497.542C559.066 497.971 559.873 498.944 560.089 500.116C565.028 527.151 561.52 547.024 550.213 556.079C546.082 559.388 541.111 561.064 535.797 561.064V561.06ZM505.749 522.707C507.994 537.853 517.882 548.433 527.07 552.333C534.085 555.315 540.97 554.734 545.948 550.747C551.006 546.699 558.493 535.683 554.268 506.763C539.146 517.238 526.227 520.18 514.988 515.703C512.605 518.777 508.557 521.25 505.752 522.71L505.749 522.707Z" fill="#192341"/>
<path d="M524.817 555.062C523.668 534.004 541.853 522.854 558.893 522.854C558.893 548.801 545.829 563.479 524.817 555.062Z" fill="#FF67A0"/>
<g opacity="0.3">
<path d="M528.685 538.423C528.75 538.372 528.815 538.322 528.88 538.271C539.146 530.406 553.053 542.413 546.968 553.826C546.885 553.981 546.799 554.136 546.716 554.291C554.495 549.125 558.889 537.886 558.889 522.847C547.112 522.847 534.795 528.178 528.685 538.419V538.423Z" fill="#192341"/>
</g>
<path d="M535.97 560.855C532.402 560.855 528.267 560.123 523.545 558.231C522.312 557.737 521.48 556.572 521.404 555.246C520.896 545.917 523.837 537.594 529.918 531.177C536.879 523.827 547.707 519.437 558.889 519.437C560.774 519.437 562.303 520.965 562.303 522.851C562.303 538.992 557.498 551.137 548.771 557.041C545.844 559.024 541.608 560.855 535.967 560.855H535.97ZM528.181 552.658C534.817 554.853 540.448 554.431 544.946 551.385C551.038 547.262 554.765 538.275 555.385 526.434C547.343 527.209 539.856 530.615 534.878 535.871C530.535 540.456 528.289 546.094 528.181 552.658Z" fill="#192341"/>
<path d="M604.278 404.205C609.853 402.056 612.069 394.341 609.228 386.972C606.388 379.603 599.566 375.371 593.991 377.52C588.417 379.668 586.2 387.384 589.041 394.753C591.881 402.122 598.703 406.354 604.278 404.205Z" fill="white"/>
<g opacity="0.35">
<path d="M617.333 372.933C621.364 370.606 622.137 364.399 619.06 359.07C615.983 353.741 610.221 351.307 606.19 353.635C602.16 355.962 601.386 362.169 604.463 367.498C607.54 372.827 613.302 375.26 617.333 372.933Z" fill="white"/>
</g>
<path d="M442.758 482.537C460.401 475.736 467.535 451.625 458.692 428.684C449.849 405.743 428.377 392.659 410.734 399.46C393.091 406.261 385.957 430.371 394.8 453.313C403.643 476.254 425.114 489.338 442.758 482.537Z" fill="#192341"/>
<path d="M428.44 468.3C434.014 466.151 436.231 458.435 433.39 451.066C430.55 443.697 423.728 439.466 418.153 441.614C412.579 443.763 410.362 451.479 413.203 458.848C416.043 466.217 422.865 470.449 428.44 468.3Z" fill="white"/>
<g opacity="0.35">
<path d="M441.488 437.023C445.519 434.695 446.292 428.489 443.215 423.159C440.138 417.83 434.376 415.397 430.346 417.724C426.315 420.051 425.541 426.258 428.618 431.587C431.695 436.916 437.457 439.35 441.488 437.023Z" fill="white"/>
</g>
<g opacity="0.3">
<path d="M655.682 600.29C526.775 639.113 437.354 630.115 390.201 578.352C439.538 607.799 516.631 608.448 619.967 577.516C746.16 534.425 831.039 467.029 827.42 368.747C826.533 344.437 819.757 320.743 808.813 298.974C792.595 266.677 770.25 235.247 744.264 204.362C739.639 198.865 734.91 193.368 730.043 187.907C699.742 152.516 663.652 125.135 619.419 110.403C670.137 115.2 711.263 135.361 742.76 170.871C792.148 94.2031 735.879 20.7793 671.366 8.58826C754.998 -7.93562 854.87 94.4591 769.493 195.131C774.511 200.815 779.413 206.536 784.193 212.253C811.048 244.363 834.161 277.04 850.926 310.636C862.227 333.273 869.245 357.908 870.164 383.191C873.903 485.398 786.139 555.477 655.679 600.29H655.682Z" fill="#192341"/>
</g>
<path d="M698.154 850.8L140.185 897.667C131.458 898.401 123.668 892.122 122.875 883.719L122.437 879.086C121.644 870.683 128.137 863.208 136.864 862.475L694.833 815.608C703.56 814.875 711.349 821.153 712.142 829.556L712.581 834.189C713.374 842.592 706.881 850.067 698.154 850.8Z" fill="#BEC3D0"/>
<g opacity="0.7">
<path d="M135.841 862.559L695.845 815.523C704.014 814.835 711.394 821.687 712.252 830.743L712.466 833.002C712.661 835.062 712.486 837.061 712.028 838.937C709.3 832.927 703.475 828.953 697.167 829.481L137.163 876.518C130.854 877.046 125.863 881.934 124.307 888.302C123.504 886.532 122.955 884.597 122.761 882.532L122.546 880.273C121.694 871.217 127.673 863.243 135.841 862.554V862.559Z" fill="white"/>
</g>
<g opacity="0.3">
<path d="M137.612 881.3L697.615 834.264C702.757 833.83 707.031 830.509 709.28 825.846C711.095 828.325 712.312 831.372 712.631 834.728L712.845 836.987C713.698 846.043 707.719 854.017 699.55 854.705L139.546 901.742C131.378 902.43 123.997 895.578 123.14 886.522L122.925 884.263C122.606 880.906 123.234 877.705 124.556 874.962C127.643 879.176 132.47 881.734 137.612 881.3Z" fill="#192341"/>
</g>
<path d="M463.884 835.002L176.11 859.173C166.436 859.986 156.866 855.752 150.518 847.738C150.388 847.579 150.263 847.414 150.134 847.25C146.418 842.502 143.267 837.296 140.639 831.8L41.1101 623.906C38.9208 619.333 37.1205 614.541 36.0184 609.559C32.2982 592.778 36.2528 579.593 45.693 568.976C50.7497 563.286 57.6716 559.88 65.0621 559.261L352.462 535.12C357.499 534.696 362.64 535.369 367.338 537.498C373.656 540.356 378.813 545.233 383.062 551.681C384.438 553.771 385.61 555.995 386.692 558.269L487.856 770.491C489.492 773.927 490.933 777.473 491.976 781.148C495.91 795.012 494.978 808.227 487.333 820.545C482.101 828.973 473.409 834.209 463.889 835.007L463.884 835.002Z" fill="#BEC3D0"/>
<g opacity="0.3">
<path d="M463.884 835.002L176.11 859.173C166.436 859.986 156.866 855.752 150.518 847.738C150.388 847.579 150.263 847.414 150.134 847.25C146.418 842.502 143.267 837.296 140.639 831.8L41.1101 623.906C38.9208 619.333 37.1205 614.541 36.0184 609.559C32.2982 592.778 36.2528 579.593 45.693 568.976C50.7497 563.286 57.6716 559.88 65.0621 559.261L352.462 535.12C357.499 534.696 362.64 535.369 367.338 537.498C373.656 540.356 378.813 545.233 383.062 551.681C384.438 553.771 385.61 555.995 386.692 558.269L487.856 770.491C489.492 773.927 490.933 777.473 491.976 781.148C495.91 795.012 494.978 808.227 487.333 820.545C482.101 828.973 473.409 834.209 463.889 835.007L463.884 835.002Z" fill="#192341"/>
</g>
<path d="M699.735 856.695L139.731 903.731C128.565 904.669 118.532 895.358 117.365 882.981L117.15 880.722C115.983 868.339 124.112 857.508 135.278 856.57L695.281 809.534C706.447 808.596 716.481 817.902 717.648 830.284L717.862 832.543C719.029 844.921 710.9 855.757 699.735 856.695ZM136.405 868.539C131.188 868.978 127.393 874.034 127.937 879.819L128.151 882.078C128.695 887.858 133.383 892.207 138.599 891.773L698.603 844.736C703.819 844.298 707.614 839.236 707.07 833.456L706.856 831.197C706.312 825.417 701.625 821.069 696.408 821.507L136.405 868.544V868.539Z" fill="#192341"/>
<path d="M462.523 875.411C456.918 871.521 452.838 864.365 451.607 856.271C450.23 847.215 452.494 838.074 457.825 831.187L466.153 839.141C461.645 844.971 461.805 851.334 462.304 854.61C463.012 859.278 465.181 863.273 468.098 865.302L462.523 875.411Z" fill="#192341"/>
<path d="M464.448 840.986L176.674 865.158C165.254 866.115 153.964 861.058 146.483 851.623L146.104 851.144C142.205 846.163 138.769 840.567 135.856 834.483L36.3279 626.594C33.7148 621.134 31.8895 615.977 30.7476 610.826C26.778 592.918 30.4832 577.399 41.7686 564.707C47.6681 558.069 55.7369 554.01 64.4989 553.277L351.894 529.135C358.043 528.617 364.047 529.594 369.263 531.953C376.275 535.125 382.379 540.6 387.405 548.235C388.777 550.315 390.069 552.654 391.47 555.581L492.634 767.803C494.619 771.972 496.095 775.797 497.142 779.493C501.79 795.87 500.005 810.85 491.831 824.026C485.737 833.855 475.753 840.034 464.448 840.981V840.986ZM65.6259 565.246C59.4222 565.769 53.7322 568.607 49.613 573.245C40.9408 582.999 38.2129 594.464 41.2799 608.287C42.1975 612.442 43.7085 616.67 45.8828 621.219L145.411 829.112C147.925 834.368 150.877 839.176 154.188 843.405L154.547 843.859C159.719 850.376 167.568 853.867 175.547 853.194L463.321 829.023C471.42 828.344 478.531 823.976 482.83 817.049C489.153 806.861 490.45 795.65 486.799 782.789C485.952 779.807 484.73 776.66 483.069 773.159L381.905 560.942C380.768 558.558 379.751 556.703 378.703 555.122C374.873 549.307 370.52 545.358 365.408 543.044C361.773 541.398 357.489 540.73 353.026 541.104L65.6309 565.246H65.6259Z" fill="#192341"/>
<path d="M6.80517 612.013C7.90728 616.985 9.72251 621.777 11.9317 626.355L111.889 834.214C114.527 839.699 117.704 844.921 121.429 849.653C121.574 849.823 121.698 849.992 121.818 850.142C128.211 858.146 137.821 862.385 147.545 861.567L436.93 837.261C446.495 836.458 455.247 831.222 460.503 822.799C462.707 819.258 464.363 815.663 465.5 811.987C468.333 802.846 468.013 793.286 465.191 783.392C464.154 779.722 462.697 776.166 461.052 772.745L436.96 722.427L433.529 715.276L359.449 560.558C358.347 558.279 357.175 556.045 355.798 553.97C351.529 547.517 346.338 542.645 339.995 539.782C335.262 537.668 330.106 536.995 325.034 537.419L36.0284 561.695C31.625 562.064 27.3811 563.425 23.606 565.654C23.5861 565.654 23.5512 565.654 23.5362 565.679C20.963 567.2 18.6042 569.13 16.5546 571.409C10.5703 578.102 6.76528 585.801 5.728 594.793C5.08469 600.074 5.40884 605.794 6.79021 612.008L6.80517 612.013Z" fill="#BEC3D0"/>
<g opacity="0.7">
<path d="M455.596 828.399C458.429 819.258 458.11 809.698 455.287 799.804C454.25 796.134 452.794 792.578 451.148 789.157L427.056 738.839L423.625 731.688L349.545 576.97C348.443 574.691 347.271 572.456 345.895 570.382C341.626 563.929 336.435 559.057 330.091 556.194C325.359 554.08 320.202 553.407 315.13 553.83L26.1248 578.107C21.7213 578.476 17.4775 579.837 13.7024 582.066C13.6825 582.066 13.6475 582.066 13.6326 582.091C11.3785 583.423 9.30396 585.083 7.44385 587.003C9.29897 581.258 12.3809 576.082 16.5599 571.409C18.6095 569.125 20.9633 567.2 23.5416 565.679C23.5565 565.659 23.5914 565.654 23.6114 565.654C27.3865 563.425 31.6303 562.069 36.0337 561.695L325.039 537.418C330.111 536.995 335.268 537.663 340 539.782C346.343 542.645 351.535 547.517 355.804 553.97C357.18 556.045 358.347 558.279 359.454 560.558L433.534 715.276L436.965 722.427L461.057 772.745C462.703 776.166 464.164 779.722 465.196 783.392C468.014 793.286 468.338 802.846 465.505 811.987C464.368 815.663 462.713 819.258 460.509 822.799C459.057 825.123 457.322 827.177 455.392 828.987C455.457 828.788 455.537 828.594 455.596 828.394V828.399Z" fill="white"/>
</g>
<path d="M437.494 843.25L148.114 867.556C136.644 868.519 125.309 863.467 117.794 854.047L117.38 853.523C113.5 848.591 110.044 842.996 107.117 836.912L7.14945 629.058C4.52136 623.597 2.69117 618.436 1.54418 613.289C-2.44035 595.372 1.29484 579.847 12.65 567.146C18.5744 560.518 26.6831 556.459 35.48 555.716L324.481 531.44C330.655 530.921 336.684 531.888 341.92 534.242C348.961 537.404 355.09 542.879 360.147 550.509C361.528 552.594 362.825 554.933 364.231 557.86L465.844 770.043C467.839 774.207 469.32 778.032 470.377 781.732C475.045 798.119 473.24 813.109 465.012 826.29C458.883 836.109 448.859 842.288 437.504 843.245L437.494 843.25ZM36.6071 567.679C30.3535 568.203 24.6235 571.055 20.4744 575.698C11.7474 585.458 9.00458 596.917 12.0765 610.736C12.9991 614.885 14.5101 619.109 16.6944 623.657L116.667 831.511C119.195 836.767 122.162 841.57 125.484 845.794L125.768 846.153C131.044 852.77 138.948 856.261 146.987 855.583L436.367 831.277C444.53 830.594 451.691 826.22 456.02 819.283C462.378 809.095 463.695 797.889 460.03 785.038C459.182 782.056 457.955 778.909 456.284 775.419L354.671 563.236C353.529 560.852 352.512 559.007 351.46 557.421C347.61 551.607 343.236 547.652 338.085 545.338C334.425 543.692 330.111 543.024 325.608 543.398L36.6071 567.674V567.679Z" fill="#192341"/>
<g opacity="0.3">
<path d="M26.7879 589.612C59.6017 651.035 113.221 710.06 181.9 754.369C283.134 819.682 391.126 836.298 466.947 806.601C466.637 808.591 466.218 810.561 465.63 812.511C464.543 816.097 462.962 819.607 460.858 823.063C455.826 831.282 447.443 836.383 438.267 837.151L160.746 860.46C151.416 861.243 142.195 857.089 136.051 849.264C135.931 849.12 135.812 848.95 135.677 848.786C132.091 844.158 129.039 839.056 126.501 833.695L30.2788 630.539C28.1544 626.066 26.4089 621.383 25.3417 616.526C24.0053 610.452 23.6861 604.866 24.2945 599.71C24.6934 596.139 25.5512 592.783 26.7929 589.612H26.7879Z" fill="#192341"/>
</g>
<g clip-path="url(#clip0_922_16191)">
<path d="M137 592.077L227.862 584L267.927 665.951L177.065 674.028L137 592.077Z" fill="#F0DB4F"/>
<path d="M250.935 647.067C248.442 643.387 244.204 640.488 234.765 638.27C231.42 637.365 227.916 636.815 226.063 634.996C225.194 633.919 224.846 633.299 224.725 632.611C224.259 630.385 226.804 629.451 229.389 629.872C231.074 630.185 232.963 631.082 234.597 632.636C237.399 629.997 237.398 630.013 239.366 628.197C237.679 626.883 236.827 626.284 235.878 625.743C232.358 623.577 228.547 622.639 223.454 623.189C222.614 623.37 221.769 623.559 220.929 623.739C218.649 624.551 216.799 625.984 216.161 627.739C214.012 632.523 219.005 640.118 225.789 642.824C232.651 645.855 240.615 645.976 243.178 649.155C246.073 653.067 242.507 654.733 238.111 654.645C234.754 654.341 232.355 653.083 229.254 650.685C226.719 652.763 226.719 652.763 224.108 654.889C225.737 656.452 226.971 657.114 229.055 658.408C238.58 663.845 254.907 662.085 253.405 652.708C253.373 652.386 253.147 650.227 250.935 647.067ZM204.809 625.351L196.31 626.106C199.548 632.728 202.727 639.305 205.965 645.927C208.025 650.141 210.156 653.984 209.975 655.235C209.87 657.675 206.507 657.673 204.818 657.352C203 656.822 201.779 655.947 200.247 654.694C199.818 654.334 199.492 654.054 199.42 654.036C197.735 655.51 196.062 656.992 194.377 658.467C196.565 660.491 199.161 662.187 201.915 663.194C206.011 664.659 210.627 664.81 214.718 663.462C217.299 662.42 219.068 660.58 219.207 658.007C219.569 654.618 217.25 650.76 215.126 646.454C211.734 639.423 208.256 632.401 204.809 625.351Z" fill="#323330"/>
</g>
<rect x="2.87057" y="1.61969" width="87.2203" height="87.2203" rx="2" transform="matrix(0.996073 -0.0885398 0.43921 0.898384 136.3 592.495)" stroke="white" stroke-width="4"/>
<g clip-path="url(#clip1_922_16191)">
<path d="M85.7892 680.304C83.9872 680.04 82.2158 678.88 81.3481 677.395L38.3311 603.777C37.1162 601.697 38.0763 599.739 40.4102 599.536L119.142 592.69C121.477 592.487 124.188 594.128 125.012 596.242L154.111 670.963C154.692 672.456 154.166 673.805 152.786 674.359L124.971 685.521C124.349 685.77 123.593 685.84 122.789 685.723L85.7892 680.304Z" fill="#E34F26"/>
<path fill-rule="evenodd" clip-rule="evenodd" d="M42.1589 603.13L85.1758 676.749L122.175 682.167L149.99 671.006L120.89 596.284L42.1589 603.13ZM81.3481 677.395C82.2158 678.88 83.9872 680.04 85.7892 680.304L122.789 685.723C123.593 685.84 124.349 685.77 124.971 685.521L152.786 674.359C154.166 673.805 154.692 672.456 154.111 670.963L125.012 596.242C124.188 594.128 121.477 592.487 119.142 592.69L40.4102 599.536C38.0763 599.739 37.1162 601.697 38.3311 603.777L81.3481 677.395Z" fill="white"/>
<path d="M120.213 678.118L83.8203 603.679L119.836 600.59L145.983 667.761L120.213 678.118Z" fill="#EF652A"/>
<path d="M118.985 619.958L115.193 610.028L59.8713 614.946L77.6753 644.839L115.855 641.445L120.648 654.444L109.874 658.504L95.8815 656.363L91.4694 648.746L80.4998 649.721L89.6629 665.265L114.974 668.938L134.915 661.242L123.013 630.373L82.916 633.938L76.7294 623.714L118.985 619.958Z" fill="white"/>
</g>
<g clip-path="url(#clip2_922_16191)">
<path d="M287.789 664.304C285.987 664.04 284.215 662.879 283.348 661.394L240.331 587.777C239.116 585.698 240.077 583.74 242.41 583.537L321.142 576.691C323.477 576.488 326.188 578.128 327.012 580.242L356.111 654.963C356.692 656.455 356.165 657.805 354.785 658.358L326.971 669.52C326.348 669.77 325.592 669.84 324.788 669.722L287.789 664.304Z" fill="#1B73BA"/>
<path fill-rule="evenodd" clip-rule="evenodd" d="M244.159 587.131L287.175 660.748L324.175 666.167L351.989 655.005L322.891 580.285L244.159 587.131ZM283.348 661.394C284.215 662.879 285.987 664.04 287.789 664.304L324.788 669.722C325.592 669.84 326.348 669.77 326.971 669.52L354.785 658.358C356.165 657.805 356.692 656.455 356.111 654.963L327.012 580.242C326.188 578.128 323.477 576.488 321.142 576.691L242.41 583.537C240.077 583.74 239.116 585.698 240.331 587.777L283.348 661.394Z" fill="white"/>
<path d="M322.213 662.118L285.821 587.679L321.836 584.591L347.983 651.761L322.213 662.118Z" fill="#1C88C7"/>
<path d="M317.504 594.791L262.182 599.709L268.437 609.305L294.689 606.972L273.747 619.269L279.843 628.542L317.903 625.159L322.946 638.417L311.17 641.833L298.161 640.17L293.615 632.789L282.886 633.743L291.909 649.13L317.753 652.868L336.719 644.583L324.709 614.005L301.392 616.078L322.154 604.305L317.504 594.791Z" fill="white"/>
</g>
<path fill-rule="evenodd" clip-rule="evenodd" d="M276.94 752.486L277.194 753.005C277.56 753.755 277.919 754.622 274.039 755.415C270.158 756.207 252.505 757.522 248.744 757.282C247.813 757.222 246.996 757.207 246.273 757.194C244.078 757.155 242.754 757.131 241.736 755.916C240.967 754.999 240.879 753.865 240.726 751.91C240.656 751.004 240.572 749.923 240.4 748.605C238.403 733.36 237.611 725.225 237.547 723.226C237.503 721.224 237.693 719.653 238.115 718.512C238.528 717.353 239.492 716.705 241.008 716.571C242.545 716.434 244.084 716.849 245.625 717.815C247.157 718.762 249.603 720.941 252.963 724.352C259.356 730.823 265.236 737.383 271.078 745.005C271.686 745.794 272.745 747.093 274.254 748.905C275.763 750.716 276.658 751.91 276.94 752.486ZM258.357 739.458L258.258 739.257C258.202 739.141 257.772 738.558 256.968 737.506C256.176 736.433 255.623 735.711 255.307 735.338C255.012 734.963 253.929 733.545 252.058 731.084C250.199 728.602 248.523 726.655 247.031 725.244C245.53 723.813 244.705 723.104 244.555 723.117C244.427 723.129 244.361 723.927 244.356 725.512C244.377 733.391 244.924 738.426 245.995 740.617L246.08 740.79C246.343 741.329 247.456 741.51 249.42 741.336L250.796 741.213L251.07 741.159L253.87 740.94L255.246 740.818L255.489 740.766L256.001 740.721L256.997 740.572C258.214 740.464 258.667 740.093 258.357 739.458Z" fill="white"/>
<path d="M225.277 695.649L225.178 695.448C224.869 694.814 225.329 694.443 226.559 694.334L227.567 694.184L228.085 694.138L228.33 694.086L229.722 693.962L232.553 693.741L232.83 693.686L234.222 693.562C236.208 693.386 237.332 693.566 237.594 694.104L237.679 694.277C238.749 696.465 239.271 701.495 239.247 709.369C239.233 710.952 239.161 711.75 239.032 711.761C238.881 711.775 238.051 711.067 236.542 709.639C235.042 708.23 233.36 706.287 231.496 703.809C229.619 701.352 228.533 699.936 228.237 699.562C227.92 699.19 227.364 698.468 226.57 697.397C225.764 696.347 225.333 695.764 225.277 695.649Z" fill="white"/>
<path d="M219.719 724.756L219.496 724.776C218.793 724.839 218.167 724.307 217.617 723.181L217.09 722.239L216.858 721.765L216.71 721.531L216.087 720.257L214.859 717.677L214.697 717.414L214.074 716.14C213.186 714.323 213.04 713.388 213.636 713.335L213.827 713.318C216.253 713.103 222.479 714.321 232.503 716.975C234.522 717.516 235.56 717.846 235.618 717.965C235.686 718.103 235.063 718.602 233.751 719.46C232.46 720.317 230.55 721.156 228.021 721.979C225.523 722.819 224.085 723.307 223.707 723.444C223.34 723.6 222.607 723.851 221.51 724.195C220.444 724.558 219.847 724.745 219.719 724.756Z" fill="white"/>
<path d="M263.988 709.885L264.207 709.865C264.897 709.804 265.516 710.336 266.067 711.462L266.593 712.404L266.824 712.878L266.972 713.112L267.594 714.386L268.823 716.966L268.985 717.23L269.607 718.503C270.496 720.32 270.647 721.255 270.062 721.307L269.874 721.323C267.493 721.535 261.367 720.307 251.496 717.641C249.508 717.096 248.485 716.765 248.427 716.646C248.359 716.508 248.966 716.011 250.248 715.155C251.509 714.301 253.378 713.465 255.856 712.648C258.303 711.812 259.711 711.326 260.081 711.19C260.441 711.035 261.158 710.785 262.233 710.442C263.278 710.082 263.862 709.896 263.988 709.885Z" fill="white"/>
<defs>
<clipPath id="clip0_922_16191">
<rect width="91.2203" height="91.2203" rx="4" transform="matrix(0.996073 -0.0885398 0.43921 0.898384 137 592.077)" fill="white"/>
</clipPath>
<clipPath id="clip1_922_16191">
<rect width="87.6728" height="100.404" fill="white" transform="matrix(0.996073 -0.0885398 0.43921 0.898384 36 599.762)"/>
</clipPath>
<clipPath id="clip2_922_16191">
<rect width="87.6727" height="100.404" fill="white" transform="matrix(0.996073 -0.0885398 0.43921 0.898384 238 583.762)"/>
</clipPath>
</defs>
</svg>
